<svg width="30" height="32" viewBox="0 0 30 32" fill="none" xmlns="http://www.w3.org/2000/svg">
<path d="M25.8911 13.1151H4.10869C3.85789 13.1151 3.65479 13.3318 3.65479 13.5993V18.4399C3.65479 18.7075 3.85789 18.9241 4.10869 18.9241H25.8911C26.1419 18.9241 26.345 18.7075 26.345 18.4399V13.599C26.345 13.3318 26.1419 13.1151 25.8911 13.1151ZM16.8782 5.7113V5.69434H4.10869C3.85789 5.69434 3.65479 5.91098 3.65479 6.1785V11.0191C3.65479 11.2867 3.85789 11.5033 4.10869 11.5033H16.8782V11.4863C16.9754 11.4597 17.0616 11.3995 17.1232 11.315C17.1849 11.2305 17.2184 11.1265 17.2187 11.0195V6.17818C17.2187 5.9529 17.0738 5.76538 16.8782 5.7113ZM19.7648 20.4969H4.10869C3.85789 20.4969 3.65479 20.7135 3.65479 20.9811V25.8217C3.65479 26.0892 3.85789 26.3059 4.10869 26.3059H19.7648C20.0156 26.3059 20.2187 26.0892 20.2187 25.8217V20.9811C20.2187 20.7135 20.0156 20.4969 19.7648 20.4969Z" fill="white"/>
</svg>
