<svg width="30" height="32" viewBox="0 0 30 32" fill="none" xmlns="http://www.w3.org/2000/svg">
<path d="M21.7383 6.45255L24.0176 7.19711V10.0488L21.7383 9.2005L21.7383 6.45255ZM21.7383 9.46352L24.0176 10.3118V12.926L21.7383 12.0114L21.7383 9.46352ZM21.7383 12.277L24.0176 13.1916V15.7653L21.7383 14.7956L21.7383 12.277ZM21.7383 15.0635L24.0176 16.0332V18.8073L21.7383 17.6649L21.7383 15.0635ZM23.9061 19.0272C23.6417 19.1088 22.2596 18.7571 21.3037 18.1211L21.6661 17.9045L23.9061 19.0272ZM21.0833 17.9657C20.7877 17.7442 20.5178 17.4904 20.2786 17.209L21.4048 17.7735L21.0833 17.9657ZM19.2261 5.63186L21.4919 6.37202V9.10877L19.2261 8.26548V5.63186ZM19.2261 8.52855L21.4919 9.37183V11.9125L19.2261 11.0032V8.52855ZM19.2261 11.2689L21.4919 12.1781V14.6907L19.2261 13.7267V11.2689ZM19.2261 13.9946L21.4919 14.9586V17.5413L19.9369 16.762C19.6501 16.3445 19.4192 15.8894 19.2261 15.4103V13.9946ZM16.7407 4.82008L18.9795 5.55142V8.17375L16.7407 7.34055V4.82008ZM16.7407 7.60361L18.9795 8.43686V10.9044L17.9289 10.4828C17.658 9.51287 17.3076 8.61803 16.7407 7.9V7.60361ZM18.6299 13.4732C18.411 12.5723 18.2356 11.6512 18.009 10.7806L18.9795 11.17V13.6219L18.6299 13.4732ZM18.9795 13.8898V14.7289C18.8778 14.4161 18.7877 14.0964 18.7047 13.7729L18.9795 13.8898ZM13.4422 4.76748L14.8627 4.28875V6.55764C14.4479 6.40783 13.9774 6.30217 13.4421 6.24747L13.4422 4.76748ZM15.8306 24.1143L15.0807 24.5867L12.8608 23.1684L13.3043 22.9033C13.9552 23.4565 14.7773 23.8771 15.8306 24.1143ZM11.73 20.7369C12.0724 21.4905 12.5147 22.1706 13.1115 22.7314L12.6286 23.02L10.2905 21.5262L11.73 20.7369ZM10.0537 21.3748L7.98305 20.0519L10.1531 18.8753L11.2826 19.5523C11.3857 19.8808 11.5006 20.2009 11.6307 20.51L10.0537 21.3748ZM13.1956 4.85059V6.2898L11.0555 7.07514V5.575L13.1956 4.85059ZM11.1781 19.2023L10.4048 18.7389L10.9774 18.4285C11.0385 18.6879 11.1054 18.9459 11.1781 19.2024M10.1592 18.5917L8.6677 17.6978L10.6267 16.7237C10.7173 17.2116 10.8118 17.6995 10.9198 18.1793L10.1592 18.5917ZM8.54306 6.41828L10.8089 5.65478V7.16561L8.54306 7.99717V6.41828ZM8.54306 10.6027C8.8313 10.9234 9.07284 11.2872 9.27867 11.6847L8.54306 11.9808V10.6027ZM8.54306 12.2465L9.38841 11.9063C9.69952 12.5657 9.92381 13.3077 10.1086 14.0926L8.54306 14.7597V12.2465ZM8.54306 15.0277L10.1646 14.3367C10.3189 15.0277 10.4471 15.748 10.5801 16.4715L8.54306 17.4843V15.0277ZM9.90741 18.7281L7.74553 19.9001L6.21061 18.9194L8.40558 17.828L9.90741 18.7281ZM6.11588 7.23625L8.29655 6.50139V8.08764L6.11588 8.88794V7.23625ZM6.11588 9.26237C6.52031 9.34455 6.88369 9.46347 7.21041 9.61548L6.11588 10.0164V9.26237ZM6.11588 10.279L7.50825 9.76895C7.79352 9.93004 8.05821 10.1251 8.29655 10.3499V12.08L6.11588 12.9575V10.279ZM6.11588 13.2233L8.29655 12.3458V14.8648L6.11588 15.794V13.2233ZM6.11588 16.0619L8.29655 15.1328V17.6069L6.11588 18.6913V16.0619ZM3.83245 8.00561L5.86936 7.31922V10.1067L3.83245 10.8528V8.00561ZM3.83245 11.1154L5.86936 10.3692V13.0567L3.83245 13.8763V11.1154ZM3.83245 14.1421L5.86936 13.3224V15.899L3.83245 16.7669V14.1421ZM3.83245 17.0349L5.86936 16.1669V18.8138L3.83245 19.8266V17.0349ZM5.95312 19.0474L7.49789 20.0344L5.58216 21.0727L3.95934 20.0388L5.95312 19.0474ZM7.73536 20.1861L9.80723 21.5099L7.9102 22.5559L5.82028 21.2244L7.73536 20.1861ZM10.0441 21.6612L12.3921 23.1614L10.5704 24.2507L8.14247 22.7039L10.0441 21.6612ZM10.8026 24.3987L12.6243 23.3097L14.8502 24.7319L13.0778 25.8483L10.8026 24.3987ZM15.1441 27.1648L13.3078 25.9948L15.0798 24.8786L16.8879 26.0338L15.1441 27.1648ZM17.115 25.8865L15.3104 24.7334L17.5613 23.3154L19.3897 24.4112L17.115 25.8865ZM19.62 24.2619L17.7952 23.1681L20.1547 21.6817L22.0158 22.708L19.62 24.2619ZM22.2504 22.5558L20.3931 21.5316L22.5868 20.1496L24.466 21.1189L22.2504 22.5558ZM24.7135 20.9583L22.829 19.9971L24.1636 19.1563L26.041 20.0973L24.7135 20.9583ZM26.1655 19.884L24.2641 18.9309V16.1381L26.1655 16.947V19.884ZM26.1655 16.679L24.2641 15.8702V13.2906L26.1655 14.0535V16.679ZM26.1655 13.7879L24.2641 13.0249V10.4035L26.1655 11.1112V13.7879ZM26.1655 10.8481L24.2641 10.1405V7.27764L26.1655 7.89873V10.8481ZM3.58594 20.6462L15.148 28L26.4141 20.7021V7.72L15.0243 4L3.58594 7.82852V20.6462ZM16.4941 7.24881L15.1092 6.73342V4.28711L16.4941 4.74494L16.4941 7.24881Z" fill="white"/>
</svg>
