<svg width="24" height="24" viewBox="0 0 24 24" fill="none" xmlns="http://www.w3.org/2000/svg">
<g id="Group">
<path id="Vector" d="M1.06616 1.10229V22.8977H22.8616" stroke="white" stroke-width="1.71429" stroke-linecap="round" stroke-linejoin="round"/>
<path id="Vector_2" d="M1.06616 16.1555L5.41016 11.5166M10.4724 11.1704L13.2582 13.7658M16.9284 12.9909L18.9359 7.47264M7.81702 6.60692C8.62449 6.60692 9.39889 6.92769 9.96986 7.49866C10.5408 8.06963 10.8616 8.84402 10.8616 9.6515C10.8616 10.459 10.5408 11.2334 9.96986 11.8043C9.39889 12.3753 8.62449 12.6961 7.81702 12.6961C7.00955 12.6961 6.23515 12.3753 5.66418 11.8043C5.09321 11.2334 4.77245 10.459 4.77245 9.6515C4.77245 8.84402 5.09321 8.06963 5.66418 7.49866C6.23515 6.92769 7.00955 6.60692 7.81702 6.60692ZM19.817 1.51892C20.2228 1.50929 20.6264 1.5809 21.0041 1.72953C21.3818 1.87816 21.726 2.10082 22.0164 2.38441C22.3068 2.668 22.5376 3.00679 22.6951 3.38086C22.8527 3.75494 22.9338 4.15674 22.9338 4.56264C22.9338 4.96854 22.8527 5.37034 22.6951 5.74441C22.5376 6.11848 22.3068 6.45728 22.0164 6.74087C21.726 7.02445 21.3818 7.24711 21.0041 7.39574C20.6264 7.54438 20.2228 7.61598 19.817 7.60635C19.0223 7.58749 18.2664 7.25853 17.711 6.68978C17.1556 6.12103 16.8447 5.3576 16.8447 4.56264C16.8447 3.76768 17.1556 3.00425 17.711 2.43549C18.2664 1.86674 19.0223 1.53779 19.817 1.51892ZM15.5844 12.6961C15.9843 12.6961 16.3802 12.7748 16.7496 12.9278C17.1189 13.0808 17.4546 13.3051 17.7373 13.5878C18.02 13.8705 18.2443 14.2061 18.3973 14.5755C18.5503 14.9449 18.629 15.3408 18.629 15.7406C18.629 16.1405 18.5503 16.5364 18.3973 16.9057C18.2443 17.2751 18.02 17.6108 17.7373 17.8935C17.4546 18.1762 17.1189 18.4005 16.7496 18.5535C16.3802 18.7065 15.9843 18.7852 15.5844 18.7852C14.777 18.7852 14.0026 18.4644 13.4316 17.8935C12.8606 17.3225 12.5399 16.5481 12.5399 15.7406C12.5399 14.9332 12.8606 14.1588 13.4316 13.5878C14.0026 13.0168 14.777 12.6961 15.5844 12.6961Z" stroke="white" stroke-width="1.71429" stroke-linecap="round" stroke-linejoin="round"/>
</g>
</svg>
