<svg width="30" height="32" viewBox="0 0 30 32" fill="none" xmlns="http://www.w3.org/2000/svg">
<path d="M4.06616 5.10229V26.8977H25.8616" stroke="white" stroke-width="1.71429" stroke-linecap="round" stroke-linejoin="round"/>
<path d="M4.06616 20.1555L8.41016 15.5166M13.4724 15.1704L16.2582 17.7658M19.9284 16.9909L21.9359 11.4726M10.817 10.6069C11.6245 10.6069 12.3989 10.9277 12.9699 11.4987C13.5408 12.0696 13.8616 12.844 13.8616 13.6515C13.8616 14.459 13.5408 15.2334 12.9699 15.8043C12.3989 16.3753 11.6245 16.6961 10.817 16.6961C10.0095 16.6961 9.23515 16.3753 8.66418 15.8043C8.09321 15.2334 7.77245 14.459 7.77245 13.6515C7.77245 12.844 8.09321 12.0696 8.66418 11.4987C9.23515 10.9277 10.0095 10.6069 10.817 10.6069ZM22.817 5.51892C23.2228 5.50929 23.6264 5.5809 24.0041 5.72953C24.3818 5.87816 24.726 6.10082 25.0164 6.38441C25.3068 6.668 25.5376 7.00679 25.6951 7.38086C25.8527 7.75494 25.9338 8.15674 25.9338 8.56264C25.9338 8.96854 25.8527 9.37034 25.6951 9.74441C25.5376 10.1185 25.3068 10.4573 25.0164 10.7409C24.726 11.0245 24.3818 11.2471 24.0041 11.3957C23.6264 11.5444 23.2228 11.616 22.817 11.6064C22.0223 11.5875 21.2664 11.2585 20.711 10.6898C20.1556 10.121 19.8447 9.3576 19.8447 8.56264C19.8447 7.76768 20.1556 7.00425 20.711 6.43549C21.2664 5.86674 22.0223 5.53779 22.817 5.51892ZM18.5844 16.6961C18.9843 16.6961 19.3802 16.7748 19.7496 16.9278C20.1189 17.0808 20.4546 17.3051 20.7373 17.5878C21.02 17.8705 21.2443 18.2061 21.3973 18.5755C21.5503 18.9449 21.629 19.3408 21.629 19.7406C21.629 20.1405 21.5503 20.5364 21.3973 20.9057C21.2443 21.2751 21.02 21.6108 20.7373 21.8935C20.4546 22.1762 20.1189 22.4005 19.7496 22.5535C19.3802 22.7065 18.9843 22.7852 18.5844 22.7852C17.777 22.7852 17.0026 22.4644 16.4316 21.8935C15.8606 21.3225 15.5399 20.5481 15.5399 19.7406C15.5399 18.9332 15.8606 18.1588 16.4316 17.5878C17.0026 17.0168 17.777 16.6961 18.5844 16.6961Z" stroke="white" stroke-width="1.71429" stroke-linecap="round" stroke-linejoin="round"/>
</svg>
