<svg width="30" height="30" viewBox="0 0 30 30" fill="none" xmlns="http://www.w3.org/2000/svg">
<path d="M14.2151 4.53488C14.2151 4.32672 14.2978 4.12708 14.445 3.97989C14.5922 3.83269 14.7918 3.75 15 3.75C21.2131 3.75 26.25 8.78686 26.25 15C26.25 21.2131 21.2131 26.25 15 26.25C8.78687 26.25 3.75001 21.2131 3.75001 15C3.74825 13.5034 4.04595 12.0216 4.62557 10.6419C5.20519 9.26212 6.05501 8.01227 7.12501 6.96593C7.19823 6.89206 7.28541 6.83348 7.38148 6.7936C7.47755 6.75371 7.58058 6.73332 7.6846 6.73361C7.78861 6.7339 7.89153 6.75485 7.98738 6.79527C8.08322 6.83568 8.17008 6.89474 8.24289 6.96901C8.31571 7.04329 8.37304 7.1313 8.41155 7.22792C8.45005 7.32455 8.46897 7.42786 8.4672 7.53186C8.46543 7.63587 8.443 7.73848 8.40122 7.83373C8.35945 7.92899 8.29915 8.01499 8.22384 8.08674C7.30293 8.98696 6.57154 10.0624 6.07278 11.2497C5.57402 12.437 5.31799 13.7122 5.31977 15C5.31977 16.9146 5.88751 18.7861 6.95119 20.378C8.01486 21.97 9.52671 23.2107 11.2955 23.9434C13.0644 24.676 15.0107 24.8677 16.8885 24.4942C18.7663 24.1207 20.4912 23.1988 21.845 21.845C23.1988 20.4912 24.1207 18.7663 24.4942 16.8885C24.8677 15.0107 24.676 13.0644 23.9434 11.2955C23.2107 9.5267 21.97 8.01486 20.3781 6.95118C18.7861 5.8875 16.9146 5.31977 15 5.31977C14.7918 5.31977 14.5922 5.23707 14.445 5.08988C14.2978 4.94269 14.2151 4.74305 14.2151 4.53488Z" fill="white"/>
<path d="M14.2742 8.22581C14.2742 8.03331 14.3507 7.8487 14.4868 7.71258C14.6229 7.57647 14.8075 7.5 15 7.5C16.4834 7.5 17.9334 7.93987 19.1668 8.76398C20.4001 9.58809 21.3614 10.7594 21.9291 12.1299C22.4967 13.5003 22.6453 15.0083 22.3559 16.4632C22.0665 17.918 21.3522 19.2544 20.3033 20.3033C19.2544 21.3522 17.918 22.0665 16.4632 22.3559C15.0083 22.6453 13.5003 22.4967 12.1299 21.9291C10.7594 21.3614 9.58809 20.4001 8.76398 19.1668C7.93987 17.9334 7.5 16.4834 7.5 15C7.5 14.8075 7.57647 14.6229 7.71258 14.4868C7.8487 14.3507 8.03331 14.2742 8.22581 14.2742C8.4183 14.2742 8.60291 14.3507 8.73903 14.4868C8.87514 14.6229 8.95161 14.8075 8.95161 15C8.95161 16.1963 9.30634 17.3656 9.97095 18.3603C10.6356 19.355 11.5802 20.1302 12.6854 20.588C13.7906 21.0458 15.0067 21.1655 16.18 20.9322C17.3533 20.6988 18.431 20.1227 19.2769 19.2769C20.1227 18.431 20.6988 17.3533 20.9322 16.18C21.1655 15.0067 21.0458 13.7906 20.588 12.6854C20.1302 11.5802 19.355 10.6356 18.3603 9.97095C17.3656 9.30634 16.1963 8.95161 15 8.95161C14.8075 8.95161 14.6229 8.87514 14.4868 8.73903C14.3507 8.60291 14.2742 8.4183 14.2742 8.22581Z" fill="white"/>
<path d="M14.6023 10C14.3762 10 14.1595 10.0832 13.9996 10.2312C13.8398 10.3793 13.75 10.5801 13.75 10.7895C13.75 10.9989 13.8398 11.1997 13.9996 11.3477C14.1595 11.4958 14.3762 11.5789 14.6023 11.5789C15.5818 11.5789 16.5211 11.9394 17.2137 12.581C17.9064 13.2225 18.2955 14.0927 18.2955 15C18.2955 15.9073 17.9064 16.7775 17.2137 17.419C16.5211 18.0606 15.5818 18.4211 14.6023 18.4211C14.3762 18.4211 14.1595 18.5042 13.9996 18.6523C13.8398 18.8003 13.75 19.0011 13.75 19.2105C13.75 19.4199 13.8398 19.6207 13.9996 19.7688C14.1595 19.9168 14.3762 20 14.6023 20C16.0338 20 17.4068 19.4732 18.419 18.5355C19.4313 17.5979 20 16.3261 20 15C20 13.6739 19.4313 12.4021 18.419 11.4645C17.4068 10.5268 16.0338 10 14.6023 10Z" fill="white"/>
</svg>
