<svg width="32" height="33" viewBox="0 0 32 33" fill="none" xmlns="http://www.w3.org/2000/svg">
<path d="M25.3333 15.1667V13.8333C25.3333 8.80532 25.3333 6.29066 23.7707 4.72932C22.208 3.16799 19.6947 3.16666 14.6667 3.16666C9.63867 3.16666 7.124 3.16666 5.56267 4.72932C4.00133 6.29199 4 8.80532 4 13.8333V19.1667C4 24.1947 4 26.7093 5.56267 28.2707C7.12533 29.832 9.63867 29.8333 14.6667 29.8333" stroke="#F68D2D" stroke-width="1.5" stroke-linecap="round" stroke-linejoin="round"/>
<path d="M27.9999 29.8333L25.7146 27.548M9.33325 9.83331H19.9999M9.33325 15.1666H14.6666M26.4759 23.7386C26.4863 24.3455 26.3757 24.9484 26.1506 25.5121C25.9255 26.0758 25.5905 26.589 25.165 27.0219C24.7394 27.4547 24.232 27.7985 23.6722 28.0332C23.1125 28.2679 22.5116 28.3887 21.9046 28.3887C21.2976 28.3887 20.6967 28.2679 20.1369 28.0332C19.5772 27.7985 19.0697 27.4547 18.6442 27.0219C18.2187 26.589 17.8836 26.0758 17.6585 25.5121C17.4335 24.9484 17.3229 24.3455 17.3333 23.7386C17.3537 22.5398 17.8444 21.3969 18.6994 20.5563C19.5545 19.7158 20.7055 19.2447 21.9046 19.2447C23.1036 19.2447 24.2547 19.7158 25.1098 20.5563C25.9648 21.3969 26.4554 22.5398 26.4759 23.7386Z" stroke="#F68D2D" stroke-width="1.5" stroke-linecap="round" stroke-linejoin="round"/>
</svg>
