<svg width="32" height="33" viewBox="0 0 32 33" fill="none" xmlns="http://www.w3.org/2000/svg">
<path d="M7.99992 21.8334C7.12444 21.8334 6.25753 21.6609 5.4487 21.3259C4.63986 20.9909 3.90493 20.4998 3.28587 19.8807C2.03563 18.6305 1.33325 16.9348 1.33325 15.1667C1.33325 13.3986 2.03563 11.7029 3.28587 10.4526C4.53612 9.2024 6.23181 8.50002 7.99992 8.50002C9.33325 5.36669 12.3999 3.16669 15.9999 3.16669C20.5733 3.16669 24.3199 6.71335 24.6666 11.2067L25.3333 11.1667C26.7477 11.1667 28.1043 11.7286 29.1045 12.7288C30.1047 13.729 30.6666 15.0855 30.6666 16.5C30.6666 17.9145 30.1047 19.2711 29.1045 20.2713C28.1043 21.2715 26.7477 21.8334 25.3333 21.8334H23.9999C23.6463 21.8334 23.3072 21.6929 23.0571 21.4428C22.8071 21.1928 22.6666 20.8536 22.6666 20.5C22.6666 20.1464 22.8071 19.8073 23.0571 19.5572C23.3072 19.3072 23.6463 19.1667 23.9999 19.1667H25.3333C26.0405 19.1667 26.7188 18.8857 27.2189 18.3856C27.719 17.8855 27.9999 17.2073 27.9999 16.5C27.9999 15.7928 27.719 15.1145 27.2189 14.6144C26.7188 14.1143 26.0405 13.8334 25.3333 13.8334H22.6666V12.5C22.6666 10.7319 21.9642 9.03622 20.714 7.78598C19.4637 6.53573 17.768 5.83335 15.9999 5.83335C12.6666 5.83335 9.93325 8.26002 9.41325 11.42C8.97325 11.26 8.49325 11.1667 7.99992 11.1667C6.93905 11.1667 5.92164 11.5881 5.17149 12.3383C4.42135 13.0884 3.99992 14.1058 3.99992 15.1667C3.99992 16.2276 4.42135 17.245 5.17149 17.9951C5.92164 18.7453 6.93905 19.1667 7.99992 19.1667H9.33325C9.68687 19.1667 10.026 19.3072 10.2761 19.5572C10.5261 19.8073 10.6666 20.1464 10.6666 20.5C10.6666 20.8536 10.5261 21.1928 10.2761 21.4428C10.026 21.6929 9.68687 21.8334 9.33325 21.8334H7.99992ZM15.9999 15.1667H19.9999L17.3333 20.5H19.9999L14.9999 29.8334L15.9999 23.1667H12.6666L15.9999 15.1667Z" fill="#F68D2D"/>
</svg>
